<?xml version="1.0" encoding="utf-8"?>
<!-- Generator: Adobe Illustrator 24.0.0, SVG Export Plug-In . SVG Version: 6.00 Build 0)  -->
<svg version="1.1" id="manageClip" xmlns="http://www.w3.org/2000/svg" xmlns:xlink="http://www.w3.org/1999/xlink" x="0px" y="0px"
	 viewBox="0 0 140 172" enable-background="new 0 0 133 187" xml:space="preserve">
<g id="managehole">
	<path fill="#a97eff" d="M119.01,160.38c-0.01,0.86-0.71,1.69-2.01,2.46c-6.32,3.78-26.86,6.36-51.19,6.09
		c-24.33-0.28-44.81-3.33-51.04-7.25c-1.28-0.8-1.96-1.64-1.95-2.5c0.06-5.05,23.87-8.88,53.2-8.55
		C95.34,150.96,119.07,155.33,119.01,160.38z"/>
	
		<ellipse transform="matrix(0.0113 -0.9999 0.9999 0.0113 -97.8067 226.3214)" fill="#020203" stroke="#a97eff" stroke-width="0.9733" stroke-linecap="round" stroke-linejoin="round" stroke-miterlimit="9.9968" cx="65.54" cy="162.62" rx="6.67" ry="51.12"/>
</g>
<g>
	<g>
		<g>
			<g>
				<defs>
					<path id="SVGID_1_" d="M15.94,161.59c6.59,3.31,10.86,5.57,38.5,6.5c32.98,1.11,48.28-0.46,61.5-5.5l1-143h-101V161.59z"/>
				</defs>
				<clipPath id="SVGID_2_">
					<use xlink:href="#SVGID_1_"  overflow="visible"/>
				</clipPath>
				<g clip-path="url(#SVGID_2_)">
					<g id="managehand">
						<g>
							<g>
								<path fill="#a97eff" d="M52.91,150.78c0.09,1.62,0.21,3.27,0.39,4.95c0.43,4.28,1.13,8.72,2.22,13.21
									c1.41,0.01,2.84,0,4.28-0.02c3.44-0.04,6.8-0.13,10.05-0.28c-1.25-4.37-2.07-8.77-2.55-13.05c-0.2-1.68-0.34-3.35-0.44-4.97
									c-0.75-11.84,0.71-22.1,1.39-27.02c0.26-1.89,0.39-2.85,0.39-3.75c0-3.85-3.12-6.97-6.97-6.97c-3.78,0-6.86,3.01-6.96,6.76
									c-0.03,0.34-0.16,1.22-0.27,2.01C53.71,126.99,52.18,137.89,52.91,150.78z"/>
							</g>
							<g>
								<g>
									
										<path fill="#020203" stroke="#a97eff" stroke-width="0.8067" stroke-linecap="round" stroke-linejoin="round" stroke-miterlimit="10" d="
										M47.27,108.56c0,0-1.77,14.16,12.1,16.42c12.4,2.02,15.04-6.87,15.04-6.87s8.71-1.76,10.78-12.57s19.42-10.29,23.45-16.5
										s-2.05-12.4-6.65-11.49c-0.71-6.62-7.2-10.16-13.4-8.61c-6.08-5.14-10.77-4.18-22.2,5.41
										c-11.43,9.59-10.87,11.4-16.31,9.95c-5.44-1.45-2.22-16.45-14.16-13.82c-11.94,2.63-3.55,10.97,0.13,14.59
										s0.12,14.13,4.5,18.9S47.27,108.56,47.27,108.56z"/>
									
										<path fill="#020203" stroke="#a97eff" stroke-width="0.8067" stroke-linecap="round" stroke-linejoin="round" stroke-miterlimit="10" d="
										M42.99,87.56c0,0-7.25,10.33-2.45,16.41c4.8,6.08,12.49,4.94,12.49,4.94"/>
									
										<path fill="#020203" stroke="#a97eff" stroke-width="0.8067" stroke-linecap="round" stroke-linejoin="round" stroke-miterlimit="10" d="
										M63.55,82.64c0,0,15.29-0.13,19.03,12.41"/>
									
										<path fill="#020203" stroke="#a97eff" stroke-width="0.8067" stroke-linecap="round" stroke-linejoin="round" stroke-miterlimit="10" d="
										M72.07,83.6c0,0,14.27-18.67,24.95-13.6"/>
									
										<path fill="#020203" stroke="#a97eff" stroke-width="0.8067" stroke-linecap="round" stroke-linejoin="round" stroke-miterlimit="10" d="
										M80.1,89.66c0,0,20.88-18.35,28.1-9.47"/>
									
										<path fill="#020203" stroke="#a97eff" stroke-width="0.8067" stroke-linecap="round" stroke-linejoin="round" stroke-miterlimit="10" d="
										M59.62,94.77c0,0-7.86,15.96,2.69,21.46c15.3,7.97,22.35-6.52,22.87-10.69"/>
								</g>
							</g>
						</g>
						<g>
							<circle fill="#372D51" cx="65.74" cy="79.88" r="19.86"/>
							
								<circle fill="none" stroke="#a97eff" stroke-width="0.448" stroke-linecap="round" stroke-linejoin="round" stroke-miterlimit="10" cx="65.74" cy="79.88" r="19.86"/>
							<circle fill="#3F335D" cx="65.74" cy="79.88" r="15.41"/>
							
								<circle fill="none" stroke="#a97eff" stroke-width="0.448" stroke-linecap="round" stroke-linejoin="round" stroke-miterlimit="10" cx="65.74" cy="79.88" r="15.41"/>
							<g>
								<polygon fill="#a97eff" points="58.29,79.48 65.58,67.9 72.67,79.48 65.48,83.78 								"/>
								<polygon fill="#a97eff" points="57.29,81.38 65.48,91.87 73.47,81.38 65.48,86.63 								"/>
							</g>
						</g>
					</g>
				</g>
			</g>
		</g>
	</g>
</g>
<g id="el3">
	<g>
		<path fill="#020203" d="M48.07,37.95c-6.42,1.64-7.75,2.96-9.38,9.38c-1.64-6.42-2.96-7.75-9.38-9.38
			c6.42-1.64,7.75-2.96,9.38-9.38C40.32,34.99,41.65,36.32,48.07,37.95z"/>
	</g>
	<g>
		
			<path fill="none" stroke="#a97eff" stroke-width="0.8067" stroke-linecap="round" stroke-linejoin="round" stroke-miterlimit="10" d="
			M48.07,37.95c-6.42,1.64-7.75,2.96-9.38,9.38c-1.64-6.42-2.96-7.75-9.38-9.38c6.42-1.64,7.75-2.96,9.38-9.38
			C40.32,34.99,41.65,36.32,48.07,37.95z"/>
	</g>
</g>
<g id="el2">
	<g>
		<path fill="#020203" d="M102.82,119.81c-4.67,1.19-5.63,2.15-6.82,6.82c-1.19-4.67-2.15-5.63-6.82-6.82
			c4.67-1.19,5.63-2.15,6.82-6.82C97.19,117.66,98.16,118.62,102.82,119.81z"/>
	</g>
	<g>
		
			<path fill="none" stroke="#a97eff" stroke-width="0.8067" stroke-linecap="round" stroke-linejoin="round" stroke-miterlimit="10" d="
			M102.82,119.81c-4.67,1.19-5.63,2.15-6.82,6.82c-1.19-4.67-2.15-5.63-6.82-6.82c4.67-1.19,5.63-2.15,6.82-6.82
			C97.19,117.66,98.16,118.62,102.82,119.81z"/>
	</g>
</g>
<g id="el1">
	<g>
		<path fill="#020203" d="M79.87,48.4c-3.26,0.83-3.94,1.51-4.77,4.77c-0.83-3.26-1.51-3.94-4.77-4.77
			c3.26-0.83,3.94-1.51,4.77-4.77C75.93,46.9,76.61,47.57,79.87,48.4z"/>
	</g>
	<g>
		
			<path fill="none" stroke="#a97eff" stroke-width="0.5642" stroke-linecap="round" stroke-linejoin="round" stroke-miterlimit="10" d="
			M79.87,48.4c-3.26,0.83-3.94,1.51-4.77,4.77c-0.83-3.26-1.51-3.94-4.77-4.77c3.26-0.83,3.94-1.51,4.77-4.77
			C75.93,46.9,76.61,47.57,79.87,48.4z"/>
	</g>
</g>

<style>
        /* Manage */

        @keyframes mhand {
            from {
                transform: translateY(0px);
            }

            to {
                transform: translateY(12px);
            }
        }

        #managehand {
            animation-direction: alternate;
            animation-duration: 0.5s;
            animation-name: mhand;
            animation-iteration-count: infinite;
            animation-timing-function: linear;
        }

        @keyframes mstars {
            0% {
                transform: scale(0.5);
            }

            100% {
                transform: scale(1);
            }
        }
        #manageClip {
  			transform: scale(0.88);
        }

        #managestar1 {
            transform-box: fill-box;
            transform-origin: center;
            animation-direction: alternate;
            animation-duration: 0.6s;
            animation-name: mstars;
            animation-iteration-count: infinite;
        }

        #managestar2 {
            transform-box: fill-box;
            transform-origin: center;
            animation-direction: alternate;
            animation-duration: 0.7s;
            animation-name: mstars;
            animation-iteration-count: infinite;
        }

        #managestar3 {
            transform-box: fill-box;
            transform-origin: center;
            animation-direction: alternate;
            animation-duration: 0.65s;
            animation-name: mstars;
            animation-iteration-count: infinite;
        }

        #el1
        {
        	transform-origin: center;
        	animation: el 1s -0.6s infinite alternate;
        	transform-box: fill-box;
        }
          #el2
        {
        	transform-origin: center;
        	animation: el 1s 0.3s infinite alternate;
        	transform-box: fill-box;
        }
          #el3
        {
        	transform-origin: center;
        	animation: el 1s -1s infinite alternate;
        	transform-box: fill-box;
        }
        @keyframes el
        {
        	100%
        	{
        		transform: scale(0)
        	}
        }


        /* Manage */
</style>
</svg>
