<?xml version="1.0" encoding="utf-8"?>
<!-- Generator: Adobe Illustrator 24.2.1, SVG Export Plug-In . SVG Version: 6.00 Build 0)  -->
<svg version="1.1" id="Слой_1" xmlns="http://www.w3.org/2000/svg" xmlns:xlink="http://www.w3.org/1999/xlink" x="0px" y="0px"
	 viewBox="0 0 290 227" enable-background="new 0 0 290 227" xml:space="preserve">
<g>
</g>
<g>
	<path fill="#a97eff" d="M130.86,202.68c-0.02,0.86-0.71,1.68-2.01,2.45c-5.94,3.56-24.48,6.05-46.91,6.11
		c-1.41,0.01-2.84,0-4.28-0.02c-3.44-0.04-6.8-0.13-10.05-0.28c-19.79-0.88-35.64-3.61-40.99-6.97c-1.28-0.8-1.96-1.64-1.95-2.5
		c0.06-4.62,20.04-8.23,45.94-8.54c2.38-0.02,4.81-0.02,7.27,0c2.26,0.02,4.5,0.07,6.69,0.15
		C110.71,193.94,130.91,198.03,130.86,202.68z"/>
	
		<path fill="#020203" stroke="#a97eff" stroke-width="0.9733" stroke-linecap="round" stroke-linejoin="round" stroke-miterlimit="10" d="
		M128.85,205.14c-5.94,3.56-24.48,6.05-46.91,6.11c-1.41,0.01-2.84,0-4.28-0.02c-3.44-0.04-6.8-0.13-10.05-0.28
		c-19.79-0.88-35.64-3.61-40.99-6.97c5.65-3.37,22.63-5.8,43.54-6.08c2.5-0.03,5.05-0.04,7.65-0.01c2.15,0.02,4.27,0.07,6.35,0.14
		C105.65,198.72,123.16,201.56,128.85,205.14z"/>
</g>
<g>
	<path fill="#a97eff" d="M263.85,202.68c-0.01,0.86-0.71,1.69-2.01,2.46c-6.32,3.78-26.86,6.36-51.19,6.09
		c-24.33-0.28-44.81-3.33-51.04-7.25c-1.28-0.8-1.96-1.64-1.95-2.5c0.06-5.05,23.87-8.88,53.2-8.55
		C240.18,193.26,263.91,197.63,263.85,202.68z"/>
	
		<ellipse transform="matrix(0.0113 -0.9999 0.9999 0.0113 3.3408 412.7858)" fill="#020203" stroke="#a97eff" stroke-width="0.9733" stroke-linecap="round" stroke-linejoin="round" stroke-miterlimit="9.9968" cx="210.41" cy="204.7" rx="6.67" ry="51.12"/>
</g>
<g>
	<g>
		<g>
			<g>
				<g>
					<g>
						<g>
							<g>
								<defs>
									<polygon id="SVGID_1_" points="8.5,211.39 274.5,211.39 273.5,19.28 7.5,19.28 									"/>
								</defs>
								<clipPath id="SVGID_2_">
									<use xlink:href="#SVGID_1_"  overflow="visible"/>
								</clipPath>
								<g clip-path="url(#SVGID_2_)">
									<g id="arrowdown">
										
											<line id="arrow_5_" fill="none" stroke="#a97eff" stroke-width="0.82" stroke-linecap="round" stroke-linejoin="round" stroke-miterlimit="10" x1="76.01" y1="49.41" x2="76.01" y2="74.81"/>
										
											<line id="arrow_4_" fill="none" stroke="#a97eff" stroke-width="0.82" stroke-linecap="round" stroke-linejoin="round" stroke-miterlimit="10" x1="70.37" y1="60.81" x2="70.37" y2="86.21"/>
										
											<line id="arrow_3_" fill="none" stroke="#a97eff" stroke-width="0.82" stroke-linecap="round" stroke-linejoin="round" stroke-miterlimit="10" x1="64.07" y1="49.29" x2="64.07" y2="74.69"/>
										
											<line id="arrow_2_" fill="none" stroke="#a97eff" stroke-width="0.82" stroke-linecap="round" stroke-linejoin="round" stroke-miterlimit="10" x1="202.4" y1="48.52" x2="202.4" y2="73.92"/>
										
											<line id="arrow_1_" fill="none" stroke="#a97eff" stroke-width="0.82" stroke-linecap="round" stroke-linejoin="round" stroke-miterlimit="10" x1="208.69" y1="60.05" x2="208.69" y2="85.45"/>
										
											<line id="arrow" fill="none" stroke="#a97eff" stroke-width="0.82" stroke-linecap="round" stroke-linejoin="round" stroke-miterlimit="10" x1="214.34" y1="48.64" x2="214.34" y2="74.04"/>
									</g>
									<g id="poolhand">
										<g id="poollefthand">
											<g>
												<path fill="#a97eff" d="M83.01,163.97c-0.11-0.79-0.24-1.67-0.27-2.01c-0.11-3.76-3.18-6.76-6.96-6.76
													c-3.85,0-6.97,3.12-6.97,6.97c0,0.89,0.13,1.85,0.39,3.75c0.69,4.92,2.14,15.18,1.39,27.02
													c-0.11,1.62-0.25,3.29-0.44,4.97c-0.48,4.27-1.3,8.68-2.55,13.05c3.26,0.15,6.62,0.24,10.05,0.28
													c1.44,0.02,2.87,0.02,4.28,0.02c1.09-4.49,1.8-8.93,2.22-13.21c0.18-1.68,0.3-3.34,0.39-4.95
													C85.29,180.19,83.76,169.29,83.01,163.97z"/>
											</g>
											<g>
												<g>
													
														<path fill="#020203" stroke="#a97eff" stroke-width="0.8067" stroke-linecap="round" stroke-linejoin="round" stroke-miterlimit="10" d="
														M87.34,152.14c0,0,1.77,14.16-12.1,16.42c-12.4,2.02-15.04-6.87-15.04-6.87s-8.71-1.76-10.78-12.57
														S30,138.83,25.97,132.62s2.05-12.4,6.65-11.49c0.71-6.62,7.2-10.16,13.4-8.61c6.08-5.14,10.77-4.18,22.2,5.41
														c11.43,9.59,10.87,11.4,16.31,9.95s2.22-16.45,14.16-13.82s3.55,10.97-0.13,14.59c-3.68,3.62-0.12,14.13-4.5,18.9
														C89.69,152.34,87.34,152.14,87.34,152.14z"/>
													
														<path fill="#020203" stroke="#a97eff" stroke-width="0.8067" stroke-linecap="round" stroke-linejoin="round" stroke-miterlimit="10" d="
														M91.62,131.15c0,0,7.25,10.33,2.45,16.41c-4.8,6.08-12.49,4.94-12.49,4.94"/>
													
														<path fill="#020203" stroke="#a97eff" stroke-width="0.8067" stroke-linecap="round" stroke-linejoin="round" stroke-miterlimit="10" d="
														M71.07,126.22c0,0-15.29-0.13-19.03,12.41"/>
													
														<path fill="#020203" stroke="#a97eff" stroke-width="0.8067" stroke-linecap="round" stroke-linejoin="round" stroke-miterlimit="10" d="
														M62.54,127.19c0,0-14.27-18.67-24.95-13.6"/>
													
														<path fill="#020203" stroke="#a97eff" stroke-width="0.8067" stroke-linecap="round" stroke-linejoin="round" stroke-miterlimit="10" d="
														M54.51,133.24c0,0-20.88-18.35-28.1-9.47"/>
													
														<path fill="#020203" stroke="#a97eff" stroke-width="0.8067" stroke-linecap="round" stroke-linejoin="round" stroke-miterlimit="10" d="
														M74.99,138.36c0,0,7.86,15.96-2.69,21.46c-15.3,7.97-22.35-6.52-22.87-10.69"/>
												</g>
											</g>
										</g>
										<g id="poolrighthand">
											<g>
												<path fill="#a97eff" d="M195.68,193.08c0.09,1.62,0.21,3.27,0.39,4.95c0.43,4.28,1.13,8.72,2.22,13.21
													c1.41,0.01,2.84,0,4.28-0.02c3.44-0.04,6.8-0.13,10.05-0.28c-1.25-4.37-2.07-8.77-2.55-13.05
													c-0.2-1.68-0.34-3.35-0.44-4.97c-0.75-11.84,0.71-22.1,1.39-27.02c0.26-1.89,0.39-2.85,0.39-3.75
													c0-3.85-3.12-6.97-6.97-6.97c-3.78,0-6.86,3.01-6.96,6.76c-0.03,0.34-0.16,1.22-0.27,2.01
													C196.48,169.29,194.95,180.19,195.68,193.08z"/>
											</g>
											<g>
												<g>
													
														<path fill="#020203" stroke="#a97eff" stroke-width="0.8067" stroke-linecap="round" stroke-linejoin="round" stroke-miterlimit="10" d="
														M191.61,152.14c0,0-1.77,14.16,12.1,16.42c12.4,2.02,15.04-6.87,15.04-6.87s8.71-1.76,10.78-12.57
														s19.42-10.29,23.45-16.5c4.03-6.21-2.05-12.4-6.65-11.49c-0.71-6.62-7.2-10.16-13.4-8.61
														c-6.08-5.14-10.77-4.18-22.2,5.41c-11.43,9.59-10.87,11.4-16.31,9.95s-2.22-16.45-14.16-13.82s-3.55,10.97,0.13,14.59
														c3.68,3.62,0.13,14.13,4.5,18.9C189.26,152.34,191.61,152.14,191.61,152.14z"/>
													
														<path fill="#020203" stroke="#a97eff" stroke-width="0.8067" stroke-linecap="round" stroke-linejoin="round" stroke-miterlimit="10" d="
														M187.33,131.15c0,0-7.25,10.33-2.45,16.41c4.8,6.08,12.49,4.94,12.49,4.94"/>
													
														<path fill="#020203" stroke="#a97eff" stroke-width="0.8067" stroke-linecap="round" stroke-linejoin="round" stroke-miterlimit="10" d="
														M207.89,126.22c0,0,15.29-0.13,19.03,12.41"/>
													
														<path fill="#020203" stroke="#a97eff" stroke-width="0.8067" stroke-linecap="round" stroke-linejoin="round" stroke-miterlimit="10" d="
														M216.41,127.19c0,0,14.27-18.67,24.95-13.6"/>
													
														<path fill="#020203" stroke="#a97eff" stroke-width="0.8067" stroke-linecap="round" stroke-linejoin="round" stroke-miterlimit="10" d="
														M224.44,133.24c0,0,20.88-18.35,28.1-9.47"/>
													
														<path fill="#020203" stroke="#a97eff" stroke-width="0.8067" stroke-linecap="round" stroke-linejoin="round" stroke-miterlimit="10" d="
														M203.96,138.36c0,0-7.86,15.96,2.69,21.46c15.3,7.97,22.35-6.52,22.87-10.69"/>
												</g>
											</g>
										</g>
										<g id="poolmedal">
											<g>
												<circle fill="#372D51" cx="71.07" cy="56.63" r="19.86"/>
												
													<circle fill="none" stroke="#a97eff" stroke-width="0.448" stroke-linecap="round" stroke-linejoin="round" stroke-miterlimit="10" cx="71.07" cy="56.63" r="19.86"/>
												<circle fill="#3F335D" cx="71.07" cy="56.63" r="15.41"/>
												
													<circle fill="none" stroke="#a97eff" stroke-width="0.448" stroke-linecap="round" stroke-linejoin="round" stroke-miterlimit="10" cx="71.07" cy="56.63" r="15.41"/>
												<g>
													<polygon fill="#a97eff" points="63.62,56.23 70.91,44.64 78,56.23 70.81,60.52 													"/>
													<polygon fill="#a97eff" points="62.62,58.13 70.81,68.61 78.8,58.13 70.81,63.37 													"/>
												</g>
											</g>
											<g>
												<circle fill="#372D51" cx="207.89" cy="56.63" r="19.86"/>
												
													<circle fill="none" stroke="#a97eff" stroke-width="0.448" stroke-linecap="round" stroke-linejoin="round" stroke-miterlimit="10" cx="207.89" cy="56.63" r="19.86"/>
												<circle fill="#3F335D" cx="207.89" cy="56.63" r="15.41"/>
												
													<circle fill="none" stroke="#a97eff" stroke-width="0.448" stroke-linecap="round" stroke-linejoin="round" stroke-miterlimit="10" cx="207.89" cy="56.63" r="15.41"/>
												<g>
													<polygon fill="#a97eff" points="215.34,56.23 208.04,44.64 200.95,56.23 208.14,60.52 													"/>
													<polygon fill="#a97eff" points="216.33,58.13 208.14,68.61 200.15,58.13 208.14,63.37 													"/>
												</g>
											</g>
										</g>
									</g>
								</g>
							</g>
						</g>
					</g>
				</g>
			</g>
		</g>
	</g>
</g>
<style>
 /* Pool */


        @keyframes poolh {

            0%,
            40% {
                transform: translateY(0px);
            }

            70%,
            80% {
                transform: translateY(200px);
            }

            100% {
                transform: translateY(0px);
            }
        }

        @keyframes poola {

            0%,
            20% {
                transform: scaleY(0);
            }

            25% {
                transform-origin: 50% 0%;
                transform: scaleY(1);
            }

            35% {
                transform-origin: 50% 100%;
                transform: scaleY(0);
            }
        }

        @keyframes poolm {
            0% {
                transform: scale(0);
            }

            20% {
                transform: scale(1);
            }

            40%,
            70% {
                transform: scale(1) translateY(65px);
            }

            71%,
            100% {
                transform: scale(0)
            }

        }

        #poolmedal>*:nth-child(1) {
            transform-box: fill-box;
            transform-origin: 50% 50%;
            transform: scale(0);
            animation: poolm 4s infinite
        }

        #poolmedal>*:nth-child(2) {
            transform-box: fill-box;
            transform-origin: 50% 50%;
            transform: scale(0);
            animation: poolm 4s infinite
        }

        #poolhand {
            animation: poolh 4s infinite;
        }

        #arrowdown>* {
            transform-box: fill-box;
            transform-origin: 50% 0%;
            transform: scaleY(0);
            animation: poola 4s infinite
        }

        /* Pool */
</style>
</svg>
