<?xml version="1.0" encoding="utf-8"?>
<!-- Generator: Adobe Illustrator 24.0.0, SVG Export Plug-In . SVG Version: 6.00 Build 0)  -->
<svg version="1.1" id="Layer_1" xmlns="http://www.w3.org/2000/svg" xmlns:xlink="http://www.w3.org/1999/xlink" x="0px" y="0px"
	 viewBox="0 0 595.3 689.4" style="enable-background:new 0 0 595.3 689.4;" xml:space="preserve">
<style type="text/css">
	.st0{fill:#010101;stroke:#a97eff;stroke-linecap:round;stroke-linejoin:round;stroke-miterlimit:10;}
	.st1{fill:#050706;stroke:#a97eff;stroke-linecap:round;stroke-linejoin:round;stroke-miterlimit:10;}
	.st2{fill:#050706;stroke:#a97eff;stroke-miterlimit:10;}
	.st3{fill:none;stroke:#a97eff;stroke-linecap:round;stroke-linejoin:round;}
	.st4{fill:none;stroke:#a97eff;stroke-linecap:round;stroke-linejoin:round;stroke-dasharray:11.1478,11.1478;}
	.st5{fill:#372D50;}
	.st6{stroke-width: 1.4;fill:none;stroke:#a97eff;stroke-linecap:round;stroke-linejoin:round;stroke-miterlimit:10;}
	.st7{fill:#3F345D;}
	.st8{fill:#a97eff;}
	.st9{fill:none;stroke:#a97eff;stroke-width:1;stroke-linecap:round;stroke-linejoin:round;stroke-miterlimit:10.0004;}
	.st10{fill:#050706;stroke:#a97eff;stroke-width:0.8754;stroke-miterlimit:10;}
	.st11{fill:#3F345D;stroke:#a97eff;stroke-miterlimit:10;}
	.st12{fill:#010101;}
	.st13{clip-path:url(#SVGID_2_);fill:#010101;stroke:#a97eff;stroke-linecap:round;stroke-linejoin:round;stroke-miterlimit:10;}
	.st14{clip-path:url(#SVGID_5_);fill:#a97eff;stroke:#a97eff;stroke-linecap:round;stroke-linejoin:round;stroke-miterlimit:10;}
	.st15{fill:#FFFFFF;stroke:#010101;stroke-linecap:round;stroke-linejoin:round;stroke-miterlimit:10;}
	.st16{fill:#FFFFFF;}
	.st17{fill:#a97eff;stroke:#010101;stroke-linecap:round;stroke-linejoin:round;stroke-miterlimit:10;}
	.st18{fill:none;stroke:#010101;stroke-linecap:round;stroke-linejoin:round;stroke-miterlimit:10;}
	.st19{clip-path:url(#SVGID_10_);fill:#a97eff;stroke:#a97eff;stroke-linecap:round;stroke-linejoin:round;stroke-miterlimit:10;}
	
		.st20{clip-path:url(#SVGID_12_);fill:#010101;stroke:#a97eff;stroke-width:0.917;stroke-linecap:round;stroke-linejoin:round;stroke-miterlimit:10;}
	.st21{fill:none;stroke:#a97eff;stroke-width:0.917;stroke-linecap:round;stroke-linejoin:round;stroke-miterlimit:10;}
	.st22{fill:none;}
</style>
<g id="boxes">
	<g>
		<polygon id="charP2" class="st0" points="292,391 399.6,355.9 506.6,388.7 481.9,445.2 324.4,471.7 307.9,424.1 		"/>
		<polygon id="charP1" class="st0" points="2.2,201.9 109.8,166.8 216.7,199.5 192.1,256 34.6,282.6 18,234.9 		"/>
		<g id="rainbow">
			<path class="st1" d="M447.6,437.8l-86.2-1.5c0.1-0.5,9.7-81.4,0-143.6c-11.7-75-39.9-122.3-83.8-140.3
				c-13-5.4-52.5-21.6-104.2,27.9c-29.3,28-51.4,70-51.5,70.3l-77.4-23.8c0.9-1.9,36-64.6,75.4-102.3c24.6-23.5,50.9-39.9,78.2-48.7
				c36-11.6,72.7-9.8,109.1,5.1c70,28.9,115.3,98.6,131,201.7C449.1,354.9,447.9,435.1,447.6,437.8z"/>
		</g>
		<g id="shadow2">
			<ellipse class="st2" cx="399.2" cy="624.8" rx="107.3" ry="21.2"/>
			<ellipse class="st2" cx="389.7" cy="622.8" rx="64.3" ry="9.3"/>
		</g>
		<g id="shadow1">
			<ellipse class="st2" cx="109.5" cy="429.2" rx="107.3" ry="21.2"/>
			<ellipse class="st2" cx="122.7" cy="427.8" rx="64.3" ry="9.3"/>
		</g>
		<g>
			<g>
				<path class="st3" d="M74.2,246.9c0,0,0.9-1.8,2.6-4.9"/>
				<path id="dashed" class="st4" d="M82.3,232.3c21.5-36,84.5-126,175.7-122.2c111.6,4.6,154.9,141.1,143,325.3"/>
				<path class="st3" d="M400.6,441c-0.1,1.8-0.3,3.7-0.4,5.5"/>
			</g>
		</g>
		<g id="romb3">
			<circle class="st5" cx="406.3" cy="343.3" r="44.3"/>
			<circle class="st6" cx="406.3" cy="343.3" r="44.3"/>
			<circle class="st7" cx="406.3" cy="343.3" r="34.4"/>
			<circle class="st6" cx="406.3" cy="343.3" r="34.4"/>
			<g>
				<polygon class="st8" points="389.7,342.4 406,316.5 421.8,342.4 405.7,352 				"/>
				<polygon class="st8" points="387.5,346.7 405.7,370.1 423.6,346.7 405.7,358.4 				"/>
			</g>
		</g>
		<g id="romb2">
			<circle class="st5" cx="349.9" cy="157.7" r="44.3"/>
			<circle class="st6" cx="349.9" cy="157.7" r="44.3"/>
			<circle class="st7" cx="349.9" cy="157.7" r="34.4"/>
			<circle class="st6" cx="349.9" cy="157.7" r="34.4"/>
			<g>
				<polygon class="st8" points="333.3,156.8 349.6,130.9 365.4,156.8 349.4,166.4 				"/>
				<polygon class="st8" points="331.1,161 349.4,184.4 367.2,161 349.4,172.7 				"/>
			</g>
		</g>
		<g id="romb1">
			
				<ellipse transform="matrix(0.9239 -0.3827 0.3827 0.9239 -45.6273 68.1835)" class="st5" cx="148.6" cy="148.8" rx="44.3" ry="44.3"/>
			
				<ellipse transform="matrix(0.9239 -0.3827 0.3827 0.9239 -45.6273 68.1835)" class="st9" cx="148.6" cy="148.8" rx="44.3" ry="44.3"/>
			<circle class="st7" cx="148.5" cy="148.7" r="34.4"/>
			<circle class="st6" cx="148.5" cy="148.7" r="34.4"/>
			<g>
				<polygon class="st8" points="131.9,147.9 148.1,122 164,147.9 147.9,157.4 				"/>
				<polygon class="st8" points="129.6,152.1 147.9,175.5 165.7,152.1 147.9,163.8 				"/>
			</g>
		</g>
		<g id="lines">
			<path class="st6" d="M140.8,575.3C113,547.4,91.1,513.7,77,476.1"/>
			<path class="st6" d="M236.7,638.1c-19-7.4-37.1-16.9-53.8-28.2"/>
			<path class="st6" d="M159.9,524.3c-7.1-8.9-13.5-18.3-19.1-28.3"/>
			<path class="st6" d="M240.5,585.7c-21.7-9.3-41.5-22.2-58.7-38"/>
			<path class="st6" d="M583.6,394.7c-8.8,32.4-23.4,62.7-42.8,89.5"/>
			<path id="bigline" class="st6" d="M350.9,45.2c124.9,16.3,227,116.3,240.8,247.1c1.6,15.4,2,30.7,1.1,45.6"/>
			<path class="st6" d="M516.9,210.9c16.4,28.4,28,60.2,33.5,94.5c3.2,19.9,4.3,39.6,3.3,59"/>
			<path class="st6" d="M459,140.4c12.6,11,24.2,23.2,34.7,36.3"/>
		</g>
		<g id="circ3">
			<circle class="st10" cx="94.9" cy="518" r="10"/>
			<circle class="st11" cx="94.9" cy="518" r="5.3"/>
		</g>
		<g id="circ2">
			<circle class="st10" cx="542.1" cy="276.7" r="20.2"/>
			<circle class="st11" cx="542.1" cy="276.7" r="11.7"/>
		</g>
		<g id="circ1">
			<circle class="st10" cx="406.3" cy="58.6" r="14.6"/>
			<circle class="st11" cx="406.3" cy="58.6" r="7.8"/>
		</g>
		<g id="char2">
			<g>
				<g>
					<polygon id="SVGID_17_" class="st12" points="506.6,388.7 506.2,534.5 399.2,571.3 399.6,425.5 					"/>
				</g>
				<g>
					<g>
						<g>
							<g>
								<g>
									<g>
										<g>
											<g>
												<defs>
													<polygon id="SVGID_1_" points="506.6,388.7 506.2,534.5 399.2,571.3 399.6,425.5 													"/>
												</defs>
												<clipPath id="SVGID_2_">
													<use xlink:href="#SVGID_1_"  style="overflow:visible;"/>
												</clipPath>
												<polygon class="st13" points="506.6,388.7 506.2,534.5 399.2,571.3 399.6,425.5 												"/>
											</g>
										</g>
									</g>
								</g>
							</g>
						</g>
					</g>
				</g>
				<g>
					<polygon id="SVGID_7_" class="st6" points="506.6,388.7 506.2,534.5 399.2,571.3 399.6,425.5 					"/>
				</g>
			</g>
			<g>
				<g>
					<polygon id="SVGID_19_" class="st8" points="399.2,571.3 291.6,536.9 292,391 399.6,425.5 					"/>
				</g>
				<g>
					<g>
						<g>
							<g>
								<g>
									<g>
										<g>
											<g>
												<defs>
													<polygon id="SVGID_3_" points="399.2,571.3 291.6,536.9 292,391 399.6,425.5 													"/>
												</defs>
												<clipPath id="SVGID_5_">
													<use xlink:href="#SVGID_3_"  style="overflow:visible;"/>
												</clipPath>
												<polygon class="st14" points="399.2,571.3 291.6,536.9 292,391 399.6,425.5 												"/>
											</g>
										</g>
									</g>
								</g>
							</g>
						</g>
					</g>
				</g>
				<g>
					<polygon id="SVGID_8_" class="st6" points="399.2,571.3 291.6,536.9 292,391 399.6,425.5 					"/>
				</g>
			</g>
			<g>
				<ellipse class="st15" cx="319.5" cy="454.9" rx="13.8" ry="36.3"/>
				<ellipse class="st12" cx="319.5" cy="454.9" rx="8.1" ry="23.5"/>
				<polygon class="st16" points="311.5,445.4 319.5,453.6 307.9,458.3 				"/>
				<path class="st17" d="M301.5,488.5c0,0,15.4-16.8,31.8,8.4"/>
			</g>
			<g>
				<ellipse class="st15" cx="361.8" cy="465.4" rx="14.5" ry="38.1"/>
				<ellipse class="st12" cx="361.8" cy="465.4" rx="8.5" ry="24.8"/>
				<polygon class="st16" points="353.3,455.5 361.8,464.1 349.6,469 				"/>
				<path class="st17" d="M342.8,502c0,0,16.3-17.7,33.4,8.9"/>
			</g>
			<path class="st18" d="M313.7,493.1c0,0,4.3,39.4,21.8,42.4c17.6,3,26.2-31,26.2-31"/>
			<g>
				<g>
					<path class="st12" d="M526.5,389.8c-14,3.6-16.9,6.5-20.5,20.5c-3.6-14-6.5-16.9-20.5-20.5c14-3.6,16.9-6.5,20.5-20.5
						C509.6,383.3,512.5,386.2,526.5,389.8z"/>
				</g>
				<g>
					<path class="st6" d="M526.5,389.8c-14,3.6-16.9,6.5-20.5,20.5c-3.6-14-6.5-16.9-20.5-20.5c14-3.6,16.9-6.5,20.5-20.5
						C509.6,383.3,512.5,386.2,526.5,389.8z"/>
				</g>
			</g>
			<line class="st6" x1="492.3" y1="431.5" x2="506.2" y2="427.4"/>
			<line class="st6" x1="484.8" y1="427.4" x2="506.3" y2="420.9"/>
		</g>
		<g id="char1">
			<g>
				<g>
					<polygon id="SVGID_13_" class="st8" points="216.7,199.5 216.3,345.4 109.4,382.2 109.8,236.3 					"/>
				</g>
				<g>
					<g>
						<g>
							<g>
								<g>
									<g>
										<g>
											<g>
												<defs>
													<polygon id="SVGID_9_" points="216.7,199.5 216.3,345.4 109.4,382.2 109.8,236.3 													"/>
												</defs>
												<clipPath id="SVGID_10_">
													<use xlink:href="#SVGID_9_"  style="overflow:visible;"/>
												</clipPath>
												<polygon class="st19" points="216.7,199.5 216.3,345.4 109.4,382.2 109.8,236.3 												"/>
											</g>
										</g>
									</g>
								</g>
							</g>
						</g>
					</g>
				</g>
				<g>
					<polygon id="SVGID_4_" class="st6" points="216.7,199.5 216.3,345.4 109.4,382.2 109.8,236.3 					"/>
				</g>
			</g>
			<g>
				<g>
					<polygon id="SVGID_15_" class="st12" points="109.4,382.2 1.8,347.7 2.2,201.9 109.8,236.3 					"/>
				</g>
				<g>
					<g>
						<g>
							<g>
								<g>
									<g>
										<g>
											<g>
												<defs>
													<polygon id="SVGID_11_" points="109.4,382.2 1.8,347.7 2.2,201.9 109.8,236.3 													"/>
												</defs>
												<clipPath id="SVGID_12_">
													<use xlink:href="#SVGID_11_"  style="overflow:visible;"/>
												</clipPath>
												<polygon class="st20" points="109.4,382.2 1.8,347.7 2.2,201.9 109.8,236.3 												"/>
											</g>
										</g>
									</g>
								</g>
							</g>
						</g>
					</g>
				</g>
				<g>
					<polygon id="SVGID_6_" class="st21" points="109.4,382.2 1.8,347.7 2.2,201.9 109.8,236.3 					"/>
				</g>
			</g>
			<g>
				<path class="st15" d="M165.6,317.5c-13.9,3.1-26.7,1.4-37.2-3.8c1.5,32.7,17.6,41,37.4,37c19.7-4,35.7-19.3,36.9-53.9
					C192.2,307,179.5,314.5,165.6,317.5z"/>
				<line class="st18" x1="143.5" y1="318.4" x2="143.6" y2="348.4"/>
				<line class="st18" x1="165.6" y1="317.5" x2="165.7" y2="350.7"/>
				<line class="st18" x1="186.2" y1="309.7" x2="186.4" y2="340.5"/>
			</g>
			<g>
				<ellipse class="st15" cx="181.1" cy="263.2" rx="13.8" ry="36.3"/>
				<ellipse class="st12" cx="181.1" cy="263.2" rx="8.1" ry="23.5"/>
				<polygon class="st16" points="189.1,253.7 181.1,261.9 192.6,266.6 				"/>
			</g>
			<g>
				<ellipse class="st15" cx="149.3" cy="271.6" rx="14.5" ry="38.1"/>
				<ellipse class="st12" cx="149.3" cy="271.6" rx="8.5" ry="24.8"/>
				<polygon class="st16" points="157.8,261.6 149.3,270.2 161.5,275.1 				"/>
			</g>
			<path class="st17" d="M129,306.1c0,0,4.8,10.1-5.9,16.9"/>
			<path class="st17" d="M199.7,291c0,0-2.7,9,8.7,11.6"/>
			<g>
				<g>
					<path class="st12" d="M130.2,278.8c-14.1,3.6-17,6.5-20.6,20.6c-3.6-14.1-6.5-17-20.6-20.6c14.1-3.6,17-6.5,20.6-20.6
						C113.2,272.3,116.1,275.2,130.2,278.8z"/>
				</g>
				<g>
					<path class="st6" d="M130.2,278.8c-14.1,3.6-17,6.5-20.6,20.6c-3.6-14.1-6.5-17-20.6-20.6c14.1-3.6,17-6.5,20.6-20.6
						C113.2,272.3,116.1,275.2,130.2,278.8z"/>
				</g>
			</g>
			<line class="st6" x1="94.6" y1="358" x2="109.1" y2="361.9"/>
			<line class="st6" x1="72.4" y1="359.9" x2="109.1" y2="369.4"/>
		</g>
	</g>
</g>
<path id="path" class="st22" d="M58.4,286.7c0,0,34.7-117.9,151.4-169.9s174.5,110.1,174.5,110.1s35.7,109.6,14.2,257.3"/>

<style>
#shadow1
{
	animation: shadow1 1s infinite alternate;
	transform-box: fill-box;
	transform-origin: center;
}
#shadow2
{
	animation: shadow1 1s -0.5s infinite alternate;
	transform-box: fill-box;
	transform-origin: center;
}

@keyframes shadow1
{
	0%
	{
		transform: scale(1)
	}
		100%
	{
		transform: scale(0.87)
	}
}


#char1, #charP1
{
	animation: char1 1s infinite alternate;	
}

#char2, #charP2
{
	animation: char1 1s -0.5s infinite alternate;	
}


@keyframes char1
{
	0%
	{
		transform: translateY(0)
	}
		100%
	{
		transform: translateY(-10px)
	}
}


#circ1
{
	animation: circ1 1s -1s infinite alternate;	
		transform-box: fill-box;
	transform-origin: center;
}
#circ2
{
	animation: circ1 1s -0.5s infinite alternate;	
		transform-box: fill-box;
	transform-origin: center;
}
#circ3
{
	animation: circ1 1s -0.3s  infinite alternate;	
		transform-box: fill-box;
	transform-origin: center;
}
@keyframes circ1
{
	0%
	{
		transform: scale(1)
	}
		100%
	{
		transform: scale(0)
	}
}

#dashed
{
	animation: dashed 1s -0.5s infinite linear;	
}
@keyframes dashed
{
		100%
	{
		stroke-dashoffset: -110;
	}
}

#lines path:nth-child(1)
{
	animation: lines 2s -0.5s infinite linear;	

}
@keyframes lines
{
	100%
	{
		stroke-dasharray: 150;
		stroke-dashoffset: 0;
	}
		0%
	{
		stroke-dasharray: 50;
		stroke-dashoffset: 100;
	}
}

#lines path:nth-child(2)
{
	animation: lines2 2s -0.5s infinite linear;	

}
@keyframes lines2
{
	100%
	{
		stroke-dasharray: 100;
		stroke-dashoffset: 0;
	}
		0%
	{
		stroke-dasharray: 50;
		stroke-dashoffset: 100;
	}
}

#lines path:nth-child(3), #lines path:nth-child(4), #lines path:nth-child(8), #lines path:nth-child(7), #lines path:nth-child(5)
{
	animation: lines3 2s -0.5s infinite linear;	

}
@keyframes lines3
{
	100%
	{
		stroke-dasharray: 50;
		stroke-dashoffset: 0;
	}
		0%
	{
		stroke-dasharray: 30;
		stroke-dashoffset: 100;
	}
}

#lines path:nth-child(6)
{
	animation: lines6 2.5s -0.5s infinite linear;	

}
@keyframes lines6
{
	100%
	{
		stroke-dasharray: 400;
		stroke-dashoffset: 0;
	}
		0%
	{
		stroke-dasharray: 250;
		stroke-dashoffset: 700;
	}
}


#romb1
{
	 offset-rotate: 0deg;
	 transform-box: fill-box;
	 transform-origin: center;
	offset-path: path('M58.4,286.7c0,0,34.7-117.9,151.4-169.9s174.5,110.1,174.5,110.1s35.7,109.6,14.2,257.3');
	animation: distance 2.4s -0.8s infinite linear;
}
#romb2
{
	 offset-rotate: 0deg;
	 transform-box: fill-box;
	 transform-origin: center;
	offset-path: path('M58.4,286.7c0,0,34.7-117.9,151.4-169.9s174.5,110.1,174.5,110.1s35.7,109.6,14.2,257.3');
	animation: distance 2.4s -2.4s  infinite linear;
}
#romb3
{
	 offset-rotate: 0deg;
	 transform-box: fill-box;
	 transform-origin: center;
	offset-path: path('M58.4,286.7c0,0,34.7-117.9,151.4-169.9s174.5,110.1,174.5,110.1s35.7,109.6,14.2,257.3');
	animation: distance 2.4s -1.6s infinite linear;
}
@keyframes distance {
  100% {
    offset-distance: 100%;
  }
}s



</style>

</svg>
