<?xml version="1.0" encoding="utf-8"?>
<!-- Generator: Adobe Illustrator 24.0.0, SVG Export Plug-In . SVG Version: 6.00 Build 0)  -->
<svg version="1.1" id="Слой_1" xmlns="http://www.w3.org/2000/svg" xmlns:xlink="http://www.w3.org/1999/xlink" x="0px" y="0px"
	 viewBox="-12 -46 290 227" enable-background="new 0 0 290 227" xml:space="preserve">
<g>
	
		<path fill="none" stroke="#a97eff" stroke-width="0.82" stroke-linecap="round" stroke-linejoin="round" stroke-miterlimit="10" d="
		M88.03,56.19"/>
	
		<path fill="none" stroke="#a97eff" stroke-width="0.82" stroke-linecap="round" stroke-linejoin="round" stroke-miterlimit="10" d="
		M96.89,57.59"/>
</g>
<g>
	<path fill="#a97eff" d="M116.09,156.29c-0.01,0.86-0.71,1.69-2.01,2.46c-6.32,3.78-26.86,6.36-51.19,6.09
		c-24.33-0.28-44.81-3.33-51.04-7.25c-1.28-0.8-1.96-1.64-1.95-2.5c0.06-5.05,23.87-8.88,53.2-8.55
		C92.41,146.87,116.15,151.24,116.09,156.29z"/>
	
		<ellipse transform="matrix(0.0113 -0.9999 0.9999 0.0113 -96.4559 219.2513)" fill="#020203" stroke="#a97eff" stroke-width="0.9733" stroke-linecap="round" stroke-linejoin="round" stroke-miterlimit="9.9964" cx="62.64" cy="158.4" rx="6.67" ry="51.12"/>
</g>
<g>
	<path fill="#a97eff" d="M249.08,156.29c-0.01,0.86-0.71,1.69-2.01,2.46c-6.32,3.78-26.86,6.36-51.19,6.09
		c-24.33-0.28-44.81-3.33-51.04-7.25c-1.28-0.8-1.96-1.64-1.95-2.5c0.06-5.05,23.87-8.88,53.2-8.55
		C225.42,146.87,249.14,151.24,249.08,156.29z"/>
	
		<ellipse transform="matrix(0.0113 -0.9999 0.9999 0.0113 34.9712 352.2724)" fill="#020203" stroke="#a97eff" stroke-width="0.9733" stroke-linecap="round" stroke-linejoin="round" stroke-miterlimit="9.9964" cx="195.62" cy="158.45" rx="6.67" ry="51.12"/>
</g>
<g>
	<g>
		<g>
			<g>
				<g>
					<defs>
						<polygon id="SVGID_1_" points="1,165 267,165 266,0 0,0 						"/>
					</defs>
					<clipPath id="SVGID_2_">
						<use xlink:href="#SVGID_1_"  overflow="visible"/>
					</clipPath>
					<g clip-path="url(#SVGID_2_)">
						<g id="swaprighthand">
							<g>
								<path fill="#a97eff" d="M184.41,146.69c0.09,1.62,0.21,3.27,0.39,4.95c0.43,4.28,1.13,8.72,2.22,13.21
									c1.41,0.01,2.84,0,4.28-0.02c3.44-0.04,6.8-0.13,10.05-0.28c-1.25-4.37-2.07-8.77-2.55-13.05c-0.2-1.68-0.34-3.35-0.44-4.97
									c-0.75-11.84,0.71-22.1,1.39-27.02c0.26-1.89,0.39-2.85,0.39-3.75c0-3.85-3.12-6.97-6.97-6.97c-3.78,0-6.86,3.01-6.96,6.76
									c-0.03,0.34-0.16,1.22-0.27,2.01C185.21,122.9,183.67,133.8,184.41,146.69z"/>
							</g>
							<g id="rightH">
								<g>
									
										<path fill="#020203" stroke="#a97eff" stroke-width="0.8067" stroke-linecap="round" stroke-linejoin="round" stroke-miterlimit="10" d="
										M181.63,105.75c0,0-1.77,14.16,12.1,16.42c12.4,2.02,15.04-6.87,15.04-6.87s8.71-1.76,10.78-12.57s19.42-10.29,23.45-16.5
										c4.03-6.21-2.05-12.4-6.65-11.49c-0.71-6.62-7.2-10.16-13.4-8.61c-6.08-5.14-10.77-4.18-22.2,5.41
										c-11.43,9.59-10.87,11.4-16.31,9.95c-5.44-1.45-2.22-16.45-14.16-13.82c-11.94,2.63-3.55,10.97,0.13,14.59
										c3.68,3.62,0.12,14.13,4.5,18.9C179.28,105.95,181.63,105.75,181.63,105.75z"/>
									
										<path fill="#020203" stroke="#a97eff" stroke-width="0.8067" stroke-linecap="round" stroke-linejoin="round" stroke-miterlimit="10" d="
										M177.34,84.76c0,0-7.25,10.33-2.45,16.41c4.8,6.08,12.49,4.94,12.49,4.94"/>
									
										<path fill="#020203" stroke="#a97eff" stroke-width="0.8067" stroke-linecap="round" stroke-linejoin="round" stroke-miterlimit="10" d="
										M197.9,79.83c0,0,15.29-0.13,19.03,12.41"/>
									
										<path fill="#020203" stroke="#a97eff" stroke-width="0.8067" stroke-linecap="round" stroke-linejoin="round" stroke-miterlimit="10" d="
										M206.42,80.8c0,0,14.27-18.67,24.95-13.6"/>
									
										<path fill="#020203" stroke="#a97eff" stroke-width="0.8067" stroke-linecap="round" stroke-linejoin="round" stroke-miterlimit="10" d="
										M214.45,86.85c0,0,20.88-18.35,28.1-9.47"/>
									
										<path fill="#020203" stroke="#a97eff" stroke-width="0.8067" stroke-linecap="round" stroke-linejoin="round" stroke-miterlimit="10" d="
										M193.96,91.97c0,0-7.86,15.96,2.69,21.46c15.3,7.97,22.35-6.52,22.87-10.69"/>
								</g>
							</g>
						</g>
						<g id="swaplefthand">
							<g>
								<path fill="#a97eff" d="M71.95,117.58c-0.11-0.79-0.24-1.67-0.27-2.01c-0.11-3.76-3.18-6.76-6.96-6.76
									c-3.85,0-6.97,3.12-6.97,6.97c0,0.89,0.13,1.85,0.39,3.75c0.69,4.92,2.14,15.18,1.39,27.02c-0.11,1.62-0.25,3.29-0.44,4.97
									c-0.48,4.27-1.3,8.68-2.55,13.05c3.26,0.15,6.62,0.24,10.05,0.28c1.44,0.02,2.87,0.02,4.28,0.02
									c1.09-4.49,1.8-8.93,2.22-13.21c0.18-1.68,0.3-3.34,0.39-4.95C74.22,133.8,72.69,122.9,71.95,117.58z"/>
							</g>
							<g id="leftH">
								<g>
									
										<path fill="#020203" stroke="#a97eff" stroke-width="0.8067" stroke-linecap="round" stroke-linejoin="round" stroke-miterlimit="10" d="
										M77.35,105.75c0,0,1.77,14.16-12.1,16.42c-12.4,2.02-15.04-6.87-15.04-6.87s-8.71-1.76-10.78-12.57
										s-19.42-10.29-23.45-16.5c-4.03-6.21,2.05-12.4,6.65-11.49c0.71-6.62,7.2-10.16,13.4-8.61c6.08-5.14,10.77-4.18,22.2,5.41
										c11.43,9.59,10.87,11.4,16.31,9.95c5.44-1.45,2.22-16.45,14.16-13.82c11.94,2.63,3.55,10.97-0.13,14.59
										c-3.68,3.62-0.13,14.13-4.5,18.9C79.7,105.95,77.35,105.75,77.35,105.75z"/>
									
										<path fill="#020203" stroke="#a97eff" stroke-width="0.8067" stroke-linecap="round" stroke-linejoin="round" stroke-miterlimit="10" d="
										M81.63,84.76c0,0,7.25,10.33,2.45,16.41s-12.49,4.94-12.49,4.94"/>
									
										<path fill="#020203" stroke="#a97eff" stroke-width="0.8067" stroke-linecap="round" stroke-linejoin="round" stroke-miterlimit="10" d="
										M61.08,79.83c0,0-15.29-0.13-19.03,12.41"/>
									
										<path fill="#020203" stroke="#a97eff" stroke-width="0.8067" stroke-linecap="round" stroke-linejoin="round" stroke-miterlimit="10" d="
										M52.56,80.8c0,0-14.27-18.67-24.95-13.6"/>
									
										<path fill="#020203" stroke="#a97eff" stroke-width="0.8067" stroke-linecap="round" stroke-linejoin="round" stroke-miterlimit="10" d="
										M44.52,86.85c0,0-20.88-18.35-28.1-9.47"/>
									
										<path fill="#020203" stroke="#a97eff" stroke-width="0.8067" stroke-linecap="round" stroke-linejoin="round" stroke-miterlimit="10" d="
										M65.01,91.97c0,0,7.86,15.96-2.69,21.46c-15.3,7.97-22.35-6.52-22.87-10.69"/>
								</g>
							</g>
						</g>
						<g id="swapmedaldown">
							<rect x="-61.5" y="30.8" fill="none" width="362.37" height="99.91"/>
							<g id="swapmedal">
								<circle fill="#372D51" cx="62.63" cy="80.34" r="19.86"/>
								
									<circle fill="none" stroke="#a97eff" stroke-width="0.448" stroke-linecap="round" stroke-linejoin="round" stroke-miterlimit="10" cx="62.63" cy="80.34" r="19.86"/>
								<circle fill="#3F335D" cx="62.63" cy="80.34" r="15.41"/>
								
									<circle fill="none" stroke="#a97eff" stroke-width="0.448" stroke-linecap="round" stroke-linejoin="round" stroke-miterlimit="10" cx="62.63" cy="80.34" r="15.41"/>
								<g>
									<polygon fill="#a97eff" points="55.17,79.94 62.46,68.36 69.56,79.94 62.36,84.24 									"/>
									<polygon fill="#a97eff" points="54.17,81.84 62.36,92.33 70.35,81.84 62.36,87.08 									"/>
								</g>
							</g>
						</g>
					</g>
				</g>
			</g>
		</g>
	</g>
</g>

<style>
/* Swap */
        @keyframes swapmd {
            0% {
                transform: translateX(0)
            }

            100% {
                transform: translateX(120px)
            }
        }

        @keyframes swapmd1 {
            0% {
                transform: translateY(0)
            }

            25% {
                transform: translateY(-25px)
            }

            50% {
                transform: translateY(-40px)
            }

            75% {
                transform: translateY(-25px)
            }

            100% {
                transform: translateY(0px)
            }
        }

        @keyframes hand1 {
            0% {
                transform: translateY(10px)
            }

            10%,
            100% {
                transform: translateY(0px)
            }
        }

        @keyframes hand2 {

            0%,
            90% {
                transform: translateY(0px)
            }

            100% {
                transform: translateY(10px)
            }
        }

        #swapmedaldown2 {
            animation: swapmd 1s linear infinite alternate
        }

        #swapmedal2 {
            animation: swapmd1 1s linear infinite alternate
        }

        #swaplefthand {
            transform: translateY(10px);
            animation: hand1 1s linear infinite alternate;
        }

        #swaprighthand {
            animation: hand2 1s linear infinite alternate;
        }

#swapmedal
{
	 offset-rotate: 0deg;
	 transform-box: fill-box;
	 transform-origin: center;
	offset-path: path('M62.36,84.24c23.19-62.06,108.1-66.36,137.84,1.2');
	animation: distance 1s infinite linear alternate;
}
@keyframes distance {
  100% {
    offset-distance: 100%;
  }
}


#leftH
{
	 transform-box: fill-box;
	 transform-origin: bottom;
	animation: leftH 1s infinite ease-out alternate;

}

@keyframes leftH {
  0%{
    transform: rotate(-15deg);
  }
    11%,100% {
    transform: rotate(0deg);
  }
}

#rightH
{
	 transform-box: fill-box;
	 transform-origin: bottom;
	animation: rightH 1s infinite ease-out alternate;

}

@keyframes rightH {
  100%{
    transform: rotate(15deg);
  }
    0%,91% {
    transform: rotate(0deg);
  }
}


        /* Swap */
</style>
</svg>
