<?xml version="1.0" encoding="UTF-8"?>
<svg width="62px" height="64px" viewBox="0 0 62 64" version="1.1" xmlns="http://www.w3.org/2000/svg" xmlns:xlink="http://www.w3.org/1999/xlink">
    <!-- Generator: Sketch 52.6 (67491) - http://www.bohemiancoding.com/sketch -->
    <title>Group</title>
    <desc>Created with Sketch.</desc>
    <g id="Page-1" stroke="none" stroke-width="1" fill="none" fill-rule="evenodd">
        <g id="Group" fill="#FFFFFF" fill-rule="nonzero">
            <path d="M33.4475901,36.3426245 C34.2578737,35.9103322 34.8979603,35.2235647 35.3452137,34.3245486 C35.631192,33.7497085 35.8330468,33.1111355 35.9943189,32.3537576 C36.1086592,31.8167851 36.1888778,31.3094906 36.3116725,30.4180164 C36.4726925,29.2490308 36.5038397,29.0350163 36.5923522,28.542566 C36.8445359,27.1395106 37.1834626,26.1698315 37.7021854,25.4549741 C38.2861974,24.6501409 39.1450586,24.1207509 40.5119752,23.8581993 C41.1114309,23.7433612 41.7772645,23.5961053 42.5074223,23.4181425 C42.3406813,24.66895 42.1610248,25.9236177 41.9930265,27.1855472 C41.8070567,28.5292707 41.6343704,29.8862328 41.4882513,31.2564336 C41.4218335,31.9448437 41.3554157,32.6332537 41.3022814,33.3282831 C41.2491472,34.0233125 41.2092965,34.7249612 41.1893712,35.4332293 C41.1694459,36.1414973 41.1694459,36.863004 41.2026548,37.5977494 C41.2225801,37.9684317 41.2491472,38.3391141 41.2889979,38.7164157 C41.3288486,39.0937174 41.3886246,39.4776384 41.4616841,39.8681787 C41.5413855,40.258719 41.6410122,40.662498 41.7738478,41.0728963 C41.8469074,41.2780955 41.9199669,41.489914 42.0129518,41.7017324 C42.0528025,41.8076417 42.1059368,41.9135509 42.159071,42.0194602 L42.2454141,42.178324 C42.278623,42.237898 42.3051901,42.2908526 42.338399,42.3438072 C42.4645928,42.562245 42.610712,42.7806828 42.7833983,42.9925013 C42.9494427,43.2043198 43.1486961,43.4161383 43.3745166,43.6080988 C43.5936953,43.8000593 43.846083,43.9787811 44.1183959,44.1244063 C44.3907089,44.2700315 44.6763054,44.3825601 44.9619019,44.4686114 C45.2474984,44.5480433 45.5330949,44.5943786 45.8120497,44.6208559 C46.0910044,44.6407139 46.3566756,44.6473332 46.6090632,44.6274752 C46.735257,44.6208559 46.8614508,44.6009979 46.9942864,44.5877592 C47.1204802,44.5679013 47.2533158,44.5480433 47.3861514,44.5149466 C47.6518226,44.4553727 47.9241355,44.3693214 48.1831649,44.2634122 C48.7078655,44.0449744 49.1993572,43.7206273 49.5978639,43.3367063 C50.0030125,42.9527853 50.3085343,42.5291484 50.5476384,42.1055114 C50.7801007,41.6818745 50.9594287,41.2582375 51.0922643,40.8478392 C51.2250999,40.4374409 51.3247266,40.0336619 51.3977862,39.6365023 C51.5439053,38.8488023 51.6103231,38.0875796 51.6302484,37.3462149 C51.6568156,36.6048502 51.6368902,35.8767242 51.5903978,35.1618368 C51.5439053,34.4469495 51.4774875,33.7453008 51.3911444,33.043652 C51.2250999,31.6469739 50.9926376,30.2833925 50.7203247,28.9264303 C50.2261883,26.4397811 49.6143839,24.0033906 48.9878426,21.5864839 C49.9166175,21.3002973 50.8725598,20.99897 51.9196153,20.6637569 C52.3595109,20.5229251 52.7894995,20.3844868 53.3310241,20.2095658 C53.4270128,20.1785599 53.5228498,20.1475904 53.6510338,20.106159 C53.7015099,20.0898435 53.7439225,20.0761345 53.7806215,20.0642724 C54.0267395,20.6172309 54.2720483,21.4404491 54.6416521,22.892047 C54.6700082,23.0034139 54.8262769,23.6204942 54.8719253,23.7993221 C55.3835869,25.8037598 55.7402029,26.9499128 56.2583263,28.0079463 C56.6335984,28.7742704 57.0669683,29.4029142 57.6098744,29.8940167 C58.3307975,30.54615 59.2125873,30.9142913 60.1908057,30.9062068 L60.1993421,30.906119 C60.2318638,30.9057186 60.2642839,30.9049924 60.2966004,30.9039419 L60.2292457,54.6085762 L33.3694031,63.8546606 L33.4475901,36.3426245 Z" id="Combined-Shape"></path>
            <path d="M47.9452136,17.4930214 C47.9069895,17.3303547 47.86907,17.1676881 47.8311506,17.0050214 C47.758091,16.674055 47.6916732,16.349708 47.6252554,16.0187416 C47.5588377,15.6943946 47.5057034,15.3634282 47.4658527,15.0324618 C47.4193603,14.7014954 47.3994349,14.3705291 47.4127185,14.046182 C47.4193603,13.8806988 47.4392856,13.7152156 47.4857781,13.5629711 C47.5123452,13.4835392 47.5389123,13.4041072 47.5854048,13.337914 C47.6252554,13.2651014 47.6850315,13.2055274 47.7514493,13.1525728 C47.6717479,13.1790501 47.5920465,13.2253854 47.5256288,13.2849594 C47.4525692,13.3445333 47.3994349,13.4173459 47.3463007,13.4901585 C47.246674,13.642403 47.1802562,13.8078862 47.1204802,13.9799887 C47.00757,14.3175744 46.9477939,14.6683988 46.9013015,15.0192232 C46.8149584,15.7208719 46.795033,16.4159013 46.795033,17.1109307 C46.8016748,18.5009894 46.9013015,19.8778096 47.00757,21.241391 C47.1204802,22.6049725 47.2599576,23.9619347 47.3994349,25.3122775 C47.5455541,26.6626203 47.6850315,28.0063438 47.8112253,29.3434479 C47.9374191,30.6805521 48.0503293,32.0110369 48.1101053,33.3216638 C48.1698814,34.6322906 48.1898067,35.9362982 48.0968218,37.1674931 C48.0503293,37.7830905 47.9772698,38.37883 47.8510759,38.9216149 C47.7846582,39.1930073 47.7182404,39.4511611 47.6318972,39.6828375 C47.5521959,39.914514 47.4525692,40.1197132 47.3529425,40.2851964 C47.2533158,40.4506795 47.1470473,40.5764468 47.0540624,40.662498 C47.00757,40.702214 46.9610775,40.74193 46.914585,40.7684073 C46.8680926,40.7948846 46.8216001,40.8213619 46.7684659,40.8412199 C46.7153317,40.8610778 46.6555557,40.8809358 46.5891379,40.8941745 C46.555929,40.9007938 46.5227201,40.9074131 46.4828694,40.9140325 C46.4430187,40.9206518 46.403168,40.9272711 46.3633174,40.9272711 C46.2769742,40.9338905 46.2039147,40.9338905 46.1374969,40.9272711 C46.0777208,40.9206518 46.0245866,40.9074131 45.9847359,40.9007938 C45.9050346,40.8743165 45.8585421,40.8544585 45.7921243,40.7948846 C45.7589154,40.7684073 45.7190648,40.7286913 45.6792141,40.6757367 C45.6393634,40.6227821 45.5928709,40.5632081 45.5463785,40.4837762 C45.4533936,40.3315316 45.3604087,40.1263325 45.2807073,39.894656 C45.201006,39.6629796 45.1279464,39.4048258 45.0681704,39.1334334 C44.9419766,38.5840292 44.868917,37.9816704 44.8157828,37.3594536 C44.7626485,36.7372368 44.7360814,36.095162 44.7227978,35.4464679 C44.6962307,34.1490797 44.7227978,32.8185949 44.7692903,31.4748714 L44.9087677,27.4172236 C44.9552601,26.0536422 44.988469,24.6834414 44.9818272,23.3066212 C44.9751855,21.9298011 44.9419766,20.5397423 44.8157828,19.1496835 C44.6895889,17.7662441 44.4969773,16.3629467 44.0785452,14.9993652 C43.8726501,14.3241938 43.6003371,13.6490224 43.2217557,13.0400442 C43.122129,12.8877997 43.0225023,12.7355552 42.9095921,12.5965493 C42.7966818,12.4509241 42.6771298,12.3185375 42.550936,12.1927703 C42.4247422,12.0670031 42.2852648,11.9544745 42.1457874,11.8485653 C41.9996683,11.7492754 41.8469074,11.6566048 41.6941464,11.5837922 C42.2055634,12.0537644 42.5110853,12.6561232 42.7036969,13.2915787 C42.9029503,13.9071761 43.002577,14.5558702 43.0557112,15.2111837 C43.1088454,15.8664971 43.122129,16.5218105 43.1022037,17.1837433 C43.0846466,17.7670005 43.056776,18.3502578 43.0095042,18.933515 C41.7235796,19.2784878 40.6188576,19.5421235 39.7171856,19.7148576 C37.316454,20.1759798 35.5140719,21.2869429 34.2875583,22.9772142 C33.3265542,24.3015841 32.7945622,25.8236288 32.4400092,27.7962283 C32.3368813,28.3699934 32.3028069,28.6041215 32.132252,29.8423288 C31.925557,31.3429091 31.7827309,32.013659 31.5679486,32.4453892 C31.4618553,32.6586454 31.4757729,32.6495065 31.2095549,32.6510043 C31.1823042,32.6511334 31.158115,32.6501137 31.1376161,32.6482623 C31.1168274,32.6191708 31.0921698,32.5785969 31.0646377,32.5253659 C30.852866,32.115924 30.6908542,31.4534803 30.4539603,30.0552371 C30.4359582,29.9489819 30.3693802,29.552738 30.3548412,29.4667437 C30.3142927,29.22691 30.2810579,29.0342188 30.2474221,28.8454571 C30.1605928,28.3581784 30.0775535,27.9355175 29.9857965,27.5258817 C29.5865357,25.7434415 29.0380643,24.3071779 28.1602199,23.0479908 C27.0540663,21.461315 25.5017806,20.3166733 23.4689832,19.6825353 C21.7388972,19.1424944 20.1836961,19.118005 18.7338202,19.5645347 C17.661374,19.8948244 16.9147954,20.3349272 15.675399,21.2273719 C15.6381289,21.2542088 15.511906,21.3452209 15.507481,21.3484099 C15.4425774,21.3951841 15.3934302,21.4305183 15.346067,21.4644238 C14.164281,22.310421 13.6643996,22.5037012 12.883039,22.3720434 C12.2213372,22.2605065 11.5008204,21.694316 10.5638764,20.5427285 C10.4213189,20.3675127 10.2775393,20.1846674 10.0880901,19.9391204 C10.0528718,19.8934735 10.0170133,19.8468908 9.96910384,19.784575 C9.98521591,19.805532 9.87741928,19.6652942 9.84979886,19.6293936 C9.75189123,19.5021351 9.67995356,19.4091171 9.60914819,19.3184762 C9.18110714,18.770523 8.87041376,18.4098674 8.52568231,18.0928707 C7.90316368,17.5204357 7.23799517,17.1592461 6.39337994,17.1365979 C5.3558892,17.1087778 4.51453798,17.6315272 3.91145004,18.4640839 C3.74317982,18.6963792 3.59107653,18.9551129 3.44906165,19.2436005 C2.43545941,21.3045914 1.49852259,22.4866268 0.862478972,22.8328268 C0.841005375,22.8070157 0.817861074,22.7767611 0.793413202,22.7419096 C0.388321416,22.1644322 0.0788955035,21.0206394 0.0257792088,19.6208906 C-0.0348060343,18.0243161 0.236785431,16.2800386 0.83020737,14.6702073 C1.65411141,12.4317877 4.26497597,9.71743473 7.73840423,7.52190703 C11.2750796,5.28640131 15.1576952,3.92712692 18.1045696,3.92712692 C18.6769398,3.92712692 19.2335178,3.96551161 19.7749592,4.04195039 C20.5404651,4.15002182 21.3037603,3.83068208 21.7642487,3.20969157 C23.2406116,1.21874563 25.5480899,0.0267080804 28.0589204,0.0267080804 C31.0107204,0.0267080804 33.665574,1.67261857 35.0151099,4.24956048 C35.6347539,5.43277212 37.1841279,5.74953855 38.2184484,4.90447669 C39.6629121,3.72431906 41.4712095,3.06873359 43.3819944,3.06873359 C47.4935654,3.06873359 50.9508373,6.11515175 51.494275,10.1486668 C51.7404208,11.9756158 54.0467672,12.6300989 55.215833,11.2047514 C55.9301172,10.3338824 57.0133034,9.96072159 58.0268372,10.1812948 C59.0823679,10.4110077 59.9078115,11.2383206 60.2428455,12.6498683 C60.243942,12.6553703 60.2451864,12.6616311 60.2465758,12.6686428 C60.2551087,12.7117055 60.2651456,12.7631732 60.2765615,12.8227051 C60.3097323,12.9956847 60.3469308,13.1968855 60.3871578,13.4235717 C60.5028229,14.075365 60.6187477,14.7968429 60.7269644,15.5658763 C60.9701711,17.2942055 61.1377574,18.9987125 61.1958677,20.5767653 C61.2737524,22.6918164 61.1453231,24.4253674 60.8023695,25.5879376 C60.6508704,26.1015009 60.474024,26.4450868 60.3136739,26.6137748 C60.3134418,26.614019 60.3132104,26.6142623 60.3129796,26.6145048 C60.235757,26.5057316 60.1447665,26.3515396 60.0472849,26.1524774 C59.6985813,25.4404075 59.400229,24.4815124 58.9597291,22.7558512 C58.9153156,22.5818611 58.7594735,21.9664651 58.730088,21.8510553 C58.2357784,19.9096823 57.9243342,18.8995978 57.4566205,17.9723478 C57.0858138,17.2372175 56.645105,16.654779 56.0487039,16.2340026 C55.2197069,15.6491239 54.2121875,15.4923464 53.2242004,15.8105922 C53.0660959,15.8615201 52.8970381,15.9160948 52.6587738,15.9930936 C52.5876401,16.0160816 52.5085401,16.0416488 52.3535063,16.0917606 C52.2255466,16.1331196 52.1299316,16.1640173 52.0342326,16.1949296 C51.4958918,16.3688222 51.0691247,16.5062233 50.6332616,16.6457641 C49.6750914,16.9525208 48.7957137,17.2300577 47.9452136,17.4930214 Z" id="Combined-Shape"></path>
            <g id="Group-3" transform="translate(2.073698, 22.261753)">
                <path d="M27.154758,14.1634651 L27.0766009,41.6649751 L0.0205450807,33.0002619 L0.101257003,4.59470984 C0.259299814,4.53799917 0.417670801,4.47141693 0.575999368,4.39471653 C1.9935073,3.70802164 3.29363439,2.25639559 4.52413569,0.0596254786 C4.54383872,0.0852567086 4.55690522,0.102256468 4.55075121,0.0942519643 C4.5999992,0.15830874 4.63718613,0.20661725 4.67413466,0.25450662 C4.88387934,0.526358906 5.04811067,0.735212699 5.21762468,0.943560484 C5.86947605,1.74474376 6.46949419,2.37105955 7.14353065,2.90072527 C8.04960198,3.6127267 9.0270681,4.08826669 10.1082226,4.27050674 C11.2983469,4.47104052 12.4021236,4.34862004 13.4558799,3.94118284 C14.2229724,3.64458479 14.8306954,3.27559348 15.7281272,2.63315503 C15.7797442,2.59620433 15.8321981,2.55849286 15.9004108,2.50933385 C15.9058084,2.50544399 16.0310021,2.41517391 16.0669589,2.38928274 C16.9534567,1.75094758 17.3941958,1.49113501 17.9018882,1.33477698 C18.5171487,1.14529034 19.2029412,1.15608936 20.1385491,1.44813646 C22.2211812,2.09782056 23.1910503,3.48900859 23.795233,6.18629261 C23.9299082,6.78752982 23.9485904,6.89237321 24.2206562,8.49821475 C24.5329756,10.3416495 24.7585343,11.2639277 25.2436217,12.2018015 C25.7011331,13.0863596 26.3458542,13.7575812 27.154758,14.1634651 Z M7.47944217,6.46543367 C6.33742764,6.46543367 5.33898066,8.81472069 4.79733948,12.3190738 L7.8775158,17.0633285 C7.8775158,17.0633285 6.14165372,16.8806061 4.39926585,16.6522032 C4.37968846,17.206896 4.36663686,17.7746404 4.36663686,18.3489105 C4.36663686,24.9138626 5.75663168,30.2323874 7.47291637,30.2323874 C9.18920106,30.2323874 10.5791959,24.9138626 10.5791959,18.3489105 C10.5857217,11.7839585 9.19572686,6.46543367 7.47944217,6.46543367 Z M18.4835944,7.1370888 C17.2031765,7.1370888 16.0803485,9.8095508 15.4893864,13.7821294 L18.8710029,18.9694635 C18.8710029,18.9694635 16.9733579,18.7724762 15.0691467,18.5229588 C15.0494479,19.1204872 15.0363154,19.7245818 15.0363154,20.3418089 C15.0363154,27.6303416 16.5793832,33.5399627 18.4901607,33.5399627 C20.3943719,33.5399627 21.9440059,27.6303416 21.9440059,20.3418089 C21.9374396,13.0467099 20.3878057,7.1370888 18.4835944,7.1370888 Z" id="Combined-Shape"></path>
            </g>
        </g>
    </g>
</svg>